<svg width="62" height="50" viewBox="0 0 62 50" fill="none" xmlns="http://www.w3.org/2000/svg">
<g clip-path="url(#clip0_2_143)">
<path d="M61.2521 6.0884C58.9587 7.10437 56.5262 7.77125 54.0353 8.06687C56.6298 6.51184 58.6219 4.0494 59.56 1.11543C57.0936 2.57903 54.3952 3.61023 51.5813 4.16448C49.2892 1.72261 46.0238 0.196533 42.4097 0.196533C35.4705 0.196533 29.8444 5.82237 29.8444 12.7611C29.8444 13.7461 29.9557 14.7049 30.1698 15.6248C19.7272 15.1006 10.4688 10.0984 4.27145 2.49653C3.19011 4.35227 2.5705 6.51089 2.5705 8.81328C2.5705 13.1726 4.78892 17.0183 8.16021 19.2717C6.16487 19.2092 4.21344 18.6702 2.46882 17.6999C2.4681 17.7525 2.4681 17.8051 2.4681 17.858C2.4681 23.9458 6.7992 29.0243 12.5471 30.1786C10.6968 30.6818 8.75597 30.7554 6.87289 30.3939C8.47169 35.3858 13.1121 39.0183 18.6102 39.12C14.31 42.4898 8.89203 44.4987 3.00543 44.4987C1.99107 44.4987 0.991071 44.4391 0.00805664 44.3231C5.56858 47.8882 12.1731 49.9683 19.2688 49.9683C42.3805 49.9683 55.0186 30.8221 55.0186 14.2183C55.0186 13.6733 55.0066 13.1315 54.9822 12.5927C57.4421 10.8144 59.5653 8.61188 61.2521 6.0884Z" fill="#55ACEE"/>
</g>
<defs>
<clipPath id="clip0_2_143">
<rect width="61.26" height="50" fill="white"/>
</clipPath>
</defs>
</svg>
